<svg width="889" height="599" viewBox="0 0 889 599" fill="none" xmlns="http://www.w3.org/2000/svg">
<path d="M864.729 321.937C865.015 376.119 817.184 425.587 739.238 461.697C661.337 497.786 553.538 520.435 434.312 521.064C315.086 521.692 207.055 500.18 128.778 464.914C50.4563 429.628 2.1063 380.667 1.82077 326.485C1.53524 272.302 49.3665 222.834 127.312 186.725C205.213 150.635 313.012 127.986 432.238 127.358C551.464 126.73 659.495 148.242 737.772 183.508C816.094 218.794 864.444 267.755 864.729 321.937Z" stroke="#0196EA"/>
<path d="M845.536 217.294C857.095 276.772 820.335 339.927 751.262 393.961C682.213 447.977 580.991 492.773 463.96 515.517C346.93 538.261 236.297 534.636 152.044 510.413C67.7605 486.182 10.0225 441.391 -1.53637 381.913C-13.0952 322.436 23.6647 259.28 92.7376 205.246C161.787 151.23 263.009 106.434 380.04 83.6904C497.07 60.9467 607.702 64.5712 691.956 88.7942C776.239 113.026 833.977 157.816 845.536 217.294Z" stroke="#A7E0F8"/>
</svg>
