<svg width="376" height="795" viewBox="0 0 376 795" fill="none" xmlns="http://www.w3.org/2000/svg">
<mask id="mask0_107_24234" style="mask-type:alpha" maskUnits="userSpaceOnUse" x="0" y="0" width="376" height="795">
<rect width="376" height="795" fill="#D9D9D9"/>
</mask>
<g mask="url(#mask0_107_24234)">
<path d="M541.054 -122.417C353.159 -50.7676 148.389 -64.9889 -22.6094 38.5843C-193.608 142.157 -387.585 1009.5 -100.007 807.656C187.572 605.817 21.1569 883.213 222.36 756.93C423.562 630.648 569.822 772.848 681.097 684.874C792.372 596.9 728.948 -194.067 541.054 -122.417Z" fill="#A1DDFF"/>
<path d="M587.657 -115.722C399.618 -43.9962 194.691 4.03516 23.5623 107.718C-147.567 211.402 -341.693 942.948 -53.894 740.894C233.905 538.839 19.0109 845.677 220.368 719.259C421.724 592.842 645.77 859.073 777.032 595.817C990.904 166.881 775.695 -187.449 587.657 -115.722Z" fill="#38AFF1"/>
<path d="M594.964 -106.231C406.995 -26.4293 136.479 -117.027 -34.5871 -1.67113C-205.653 113.685 -394.22 1095.17 -79.6344 701.296C41.8774 549.16 -66.4086 819.675 178.272 667.987C422.953 516.298 642.391 923.837 770.796 538.027C899.201 152.216 782.933 -186.032 594.964 -106.231Z" fill="#0096EA"/>
</g>
</svg>
