<svg width="768" height="937" viewBox="0 0 768 937" fill="none" xmlns="http://www.w3.org/2000/svg">
<mask id="mask0_95_23165" style="mask-type:alpha" maskUnits="userSpaceOnUse" x="0" y="0" width="768" height="937">
<rect width="768" height="937" fill="#D9D9D9"/>
</mask>
<g mask="url(#mask0_95_23165)">
<path d="M887.202 -316.316C591.502 -218.343 269.245 -237.789 0.135559 -96.1654C-268.973 45.4581 -574.246 1231.44 -121.668 955.446C330.909 679.455 69.013 1058.76 385.657 886.085C702.3 713.408 932.477 907.849 1107.6 787.556C1282.72 667.263 1182.9 -414.288 887.202 -316.316Z" fill="#A1DDFF"/>
<path d="M959.268 -305.551C663.552 -207.557 341.278 -141.935 72.1543 -0.280365C-196.969 141.375 -502.258 1140.83 -49.6561 864.78C402.945 588.728 64.9965 1007.94 381.657 835.223C698.317 662.509 1050.66 1026.24 1257.09 666.574C1593.43 80.5491 1254.98 -403.545 959.268 -305.551Z" fill="#38AFF1"/>
<path d="M971.322 -167.33C675.785 -69.3866 250.461 -180.581 -18.5002 -39C-287.461 102.581 -583.939 1307.19 -89.3265 823.777C101.722 637.055 -68.5321 969.068 316.171 782.895C700.874 596.723 1045.89 1096.91 1247.78 623.391C1449.66 149.872 1266.86 -265.273 971.322 -167.33Z" fill="#0096EA"/>
</g>
</svg>
