<svg width="1344" height="957" viewBox="0 0 1344 957" fill="none" xmlns="http://www.w3.org/2000/svg">
<path d="M-218.966 885.915C-467.751 1254.41 -471.566 927.847 -218.966 428.469C33.6348 -70.9096 218.846 542.831 543.073 174.756C867.3 -193.319 2176.43 83.9414 2338.55 418.586C2409.96 565.977 1998.07 415.762 1451.75 308.178C905.444 200.593 823.221 689.806 543.073 619.071C262.924 548.337 29.8201 517.417 -218.966 885.915Z" fill="#0096EA"/>
<path d="M-219.952 1073.82C-468.755 1442.55 -472.57 1115.77 -219.952 616.081C32.6656 116.387 217.889 730.514 542.139 362.208C866.388 -6.09899 1088.98 -10.2044 1450.88 76.1237C1626.78 118.083 1997.23 603.366 1450.88 495.714C904.535 388.061 822.307 877.583 542.139 806.803C261.971 736.024 28.8506 705.085 -219.952 1073.82Z" fill="#38AFF1"/>
<path d="M-320.949 1216.82C-569.737 1585.54 -573.552 1258.78 -320.949 759.107C-68.3465 259.433 509.064 738.198 833.293 369.906C1157.52 1.61417 1419.45 83.8337 1741.98 83.8337C1905.84 83.8337 1896.1 746.392 1349.79 638.744C803.47 531.096 721.247 1020.6 441.096 949.821C160.945 879.044 -72.1613 848.105 -320.949 1216.82Z" fill="#A1DDFF"/>
<path d="M1217.39 710.224C1227.21 724.813 1226.68 744.429 1217.76 764.422C1208.84 784.408 1191.55 804.694 1168 820.514C1144.44 836.335 1119.12 844.668 1097.24 845.373C1075.34 846.079 1056.97 839.155 1047.16 824.567C1037.35 809.978 1037.88 790.362 1046.8 770.368C1055.72 750.383 1073.01 730.097 1096.56 714.276C1120.11 698.456 1145.43 690.123 1167.32 689.417C1189.21 688.712 1207.58 695.635 1217.39 710.224Z" stroke="#D1E8FC"/>
<ellipse cx="103.029" cy="64.5155" rx="103.029" ry="64.5155" transform="matrix(0.624016 -0.781412 0.781532 0.623865 1017.55 807.646)" fill="#BEE8FF"/>
<path d="M1121.1 741.374C1114.67 743.683 1111.45 744.84 1111.06 747.233C1110.67 749.627 1113.37 751.678 1118.77 755.775L1120.16 756.834C1121.7 757.999 1122.46 758.584 1122.9 759.376C1123.34 760.168 1123.4 761.083 1123.53 762.914L1123.64 764.579C1124.08 771.019 1124.3 774.238 1126.63 775.348C1128.96 776.458 1131.86 774.726 1137.65 771.256L1139.14 770.358C1140.79 769.37 1141.61 768.875 1142.55 768.743C1143.5 768.608 1144.45 768.845 1146.35 769.32L1148.09 769.752C1154.79 771.421 1158.14 772.256 1159.97 770.548C1161.8 768.841 1160.89 765.718 1159.07 759.478M1160.66 749.742C1164.36 744.336 1166.21 741.632 1165.01 739.463C1163.81 737.303 1160.35 737.103 1153.44 736.718L1151.65 736.616C1149.69 736.506 1148.71 736.451 1147.86 736.044C1147 735.638 1146.38 734.926 1145.12 733.502L1143.98 732.206C1139.56 727.194 1137.35 724.686 1134.78 725.054C1132.22 725.427 1130.99 728.427 1128.53 734.43" stroke="#0096EA" stroke-width="2" stroke-linecap="round"/>
<path d="M1110.9 747.225C1099.89 754.462 1091.47 768.303 1095.82 792.813C1099.68 782.594 1111.32 774.412 1124.31 770.472" stroke="#0096EA" stroke-width="2" stroke-linecap="round" stroke-linejoin="round"/>
<path d="M1124.26 784.335C1124.26 784.335 1127.25 790.224 1130.93 792.258C1134.6 794.279 1141.8 793.995 1141.8 793.995C1141.8 793.995 1135.24 796.677 1132.98 799.981C1130.73 803.286 1131.05 809.755 1131.05 809.755C1131.05 809.755 1128.06 803.866 1124.38 801.833C1120.71 799.816 1113.51 800.096 1113.51 800.096C1113.51 800.096 1120.06 797.414 1122.33 794.109C1124.58 790.804 1124.26 784.335 1124.26 784.335ZM1162.92 780.098C1162.92 780.098 1160.93 784.026 1158.48 785.377C1156.03 786.729 1151.23 786.538 1151.23 786.538C1151.23 786.538 1155.6 788.326 1157.1 790.529C1158.6 792.732 1158.39 797.045 1158.39 797.045C1158.39 797.045 1160.38 793.118 1162.83 791.766C1165.28 790.415 1170.08 790.605 1170.08 790.605C1170.08 790.605 1165.71 788.817 1164.21 786.614C1162.71 784.411 1162.92 780.098 1162.92 780.098Z" stroke="#0096EA" stroke-width="2" stroke-linejoin="round"/>
<path d="M390.74 184.471C390.74 220.091 361.914 248.943 326.327 248.943C290.74 248.943 261.915 220.091 261.915 184.471C261.915 148.852 290.74 120 326.327 120C361.914 120 390.74 148.852 390.74 184.471Z" fill="#E9F2FE"/>
<path d="M357.428 142.762C348.147 140.424 334.564 155.127 326.513 175.982C315.45 157.957 300.514 146.268 292.094 149.59C283.243 153.097 285.149 171.922 296.335 191.731C305.554 208.033 318.215 219.844 327.312 221.567C327.742 221.752 328.234 221.936 328.725 222.059C338.314 224.458 352.45 208.71 360.44 186.809C368.368 164.908 367.078 145.223 357.49 142.762H357.428Z" fill="#F798A3"/>
<path d="M1087.63 891.025C1086.76 889.959 1086.91 888.383 1087.98 887.507C1089.04 886.63 1090.62 886.784 1091.5 887.851L1087.63 891.025ZM1103.18 922.118L1105.64 921.626L1105.66 921.732L1105.67 921.839L1103.18 922.118ZM1094.71 945.334L1096.38 947.196L1094.71 945.334ZM1074.79 952.96L1074.66 950.463L1074.79 952.96ZM1041.52 939.127L1042.96 937.084L1041.52 939.127ZM1026.68 926.884L1028.37 925.042L1026.68 926.884ZM1008.11 904.298L1010.5 903.556L1008.11 904.298ZM1026.68 892.554L1027.9 890.375L1026.68 892.554ZM1040.83 917.974L1043.31 917.68L1040.83 917.974ZM1039.08 934.329L1041.37 935.316L1039.08 934.329ZM1015 942.554L1015.86 940.205L1015 942.554ZM991.988 927.787L990.315 929.645L991.988 927.787ZM961.431 892.554L963.495 891.143L961.431 892.554ZM936.486 846.008C937.055 844.751 938.537 844.192 939.794 844.762L960.293 854.039C961.551 854.608 962.109 856.089 961.54 857.347C960.971 858.605 959.489 859.163 958.231 858.594L940.011 850.348L931.764 868.569C931.195 869.826 929.714 870.385 928.456 869.815C927.198 869.246 926.64 867.765 927.209 866.507L936.486 846.008ZM1091.5 887.851C1099.5 897.585 1103.29 909.947 1105.64 921.626L1100.73 922.609C1098.44 911.179 1094.84 899.798 1087.63 891.025L1091.5 887.851ZM1105.67 921.839C1106.34 927.817 1105.79 932.641 1104.11 936.794C1102.44 940.943 1099.71 944.209 1096.38 947.196L1093.04 943.471C1096.04 940.79 1098.18 938.124 1099.48 934.92C1100.77 931.72 1101.3 927.771 1100.7 922.396L1105.67 921.839ZM1096.38 947.196C1088.08 954.626 1078.82 955.246 1074.93 955.456L1074.66 950.463C1078.32 950.266 1086.08 949.703 1093.04 943.471L1096.38 947.196ZM1074.93 955.456C1061.67 956.172 1049.67 947.932 1040.08 941.17L1042.96 937.084C1052.83 944.047 1063.42 951.071 1074.66 950.463L1074.93 955.456ZM1040.08 941.17C1034.71 937.383 1029.74 933.089 1024.99 928.726L1028.37 925.042C1033.06 929.349 1037.84 933.477 1042.96 937.084L1040.08 941.17ZM1024.99 928.726C1022.78 926.697 1018.64 922.848 1014.76 918.547C1010.97 914.351 1007.06 909.349 1005.72 905.04L1010.5 903.556C1011.48 906.697 1014.65 910.97 1018.47 915.196C1022.19 919.316 1026.18 923.036 1028.37 925.042L1024.99 928.726ZM1005.72 905.04C1004.07 899.711 1004.27 893.227 1008.16 889.379C1012.33 885.256 1019.21 885.482 1027.9 890.375L1025.45 894.732C1017.28 890.135 1013.34 891.287 1011.68 892.935C1009.73 894.859 1009.08 898.992 1010.5 903.556L1005.72 905.04ZM1027.9 890.375C1032.51 892.97 1036.07 897.528 1038.59 902.424C1041.13 907.349 1042.74 912.859 1043.31 917.68L1038.35 918.269C1037.84 914.036 1036.41 909.102 1034.15 904.712C1031.87 900.295 1028.89 896.669 1025.45 894.732L1027.9 890.375ZM1043.31 917.68C1043.96 923.167 1043.74 929.812 1041.37 935.316L1036.78 933.343C1038.66 928.957 1038.94 923.299 1038.35 918.269L1043.31 917.68ZM1041.37 935.316C1039.16 940.456 1034.36 943.606 1029.34 945.094C1024.32 946.582 1018.65 946.547 1014.14 944.902L1015.86 940.205C1019.23 941.436 1023.78 941.525 1027.92 940.3C1032.06 939.074 1035.35 936.673 1036.78 933.343L1041.37 935.316ZM1014.14 944.902C1005.13 941.615 997.157 935.81 990.315 929.645L993.662 925.93C1000.27 931.885 1007.7 937.228 1015.86 940.205L1014.14 944.902ZM990.315 929.645C978.522 919.019 968.281 907.007 959.367 893.964L963.495 891.143C972.208 903.893 982.194 915.597 993.662 925.93L990.315 929.645ZM959.367 893.964C949.571 879.63 942.461 863.938 936.424 847.921L941.103 846.158C947.07 861.99 954.015 877.27 963.495 891.143L959.367 893.964Z" fill="#CAE4F7"/>
</svg>
