<svg width="1344" height="745" viewBox="0 0 1344 745" fill="none" xmlns="http://www.w3.org/2000/svg">
<mask id="mask0_66_1646" style="mask-type:alpha" maskUnits="userSpaceOnUse" x="0" y="0" width="1344" height="745">
<rect width="1344" height="745" fill="#D9D9D9"/>
</mask>
<g mask="url(#mask0_66_1646)">
<path d="M1305.22 -499.589C878.856 -402.263 414.2 -421.58 26.178 -280.891C-361.844 -140.202 -802.009 1037.95 -149.448 763.783C503.113 489.612 125.491 866.416 582.052 694.879C1038.61 523.342 1370.5 716.5 1623 597C1875.5 477.5 1731.58 -596.915 1305.22 -499.589Z" fill="#A1DDFF"/>
<path d="M1409.11 -488.997C982.743 -391.671 518.087 -326.497 130.065 -185.808C-257.957 -45.1186 -698.122 947.526 -45.5611 673.356C607 399.185 119.745 815.537 576.306 644C1032.87 472.463 1540.87 833.715 1838.5 476.5C2323.44 -105.529 1835.47 -586.324 1409.11 -488.997Z" fill="#38AFF1"/>
<path d="M1412.67 -351.74C986.304 -254.414 521.649 -273.731 133.627 -133.042C-254.395 7.64694 -831.062 1113.49 -117.5 633.125C158.121 447.578 -87.5 777.5 467.5 592.5C1022.5 407.5 1520.24 904.537 1811.5 434C2102.76 -36.5365 1839.03 -449.066 1412.67 -351.74Z" fill="#0096EA"/>
</g>
</svg>
