<svg width="376" height="332" viewBox="0 0 376 332" fill="none" xmlns="http://www.w3.org/2000/svg">
<path d="M-107.337 304.639C-192.897 431.355 -194.209 319.059 -107.337 147.337C-20.4638 -24.3837 43.2327 186.663 154.739 60.0933C266.245 -66.4765 716.474 28.8649 772.229 143.939C796.785 194.622 655.13 142.968 467.247 105.973C279.363 68.9779 251.086 237.203 154.739 212.88C58.3918 188.556 -21.7757 177.924 -107.337 304.639Z" fill="#0096EA"/>
<path d="M-107.414 368.78C-192.872 495.167 -194.183 383.162 -107.414 211.886C-20.6445 40.6103 42.976 251.11 154.349 124.868C265.722 -1.37336 342.177 -2.78055 466.484 26.8094C526.902 41.1914 654.144 207.528 466.484 170.629C278.825 133.73 250.581 301.519 154.349 277.259C58.1171 252.998 -21.9549 242.393 -107.414 368.78Z" fill="#38AFF1"/>
<path d="M-142.417 418.569C-227.871 545.448 -229.181 433.008 -142.417 261.064C-55.6535 89.1214 142.675 253.87 254.042 127.136C365.408 0.403027 455.374 28.6957 566.158 28.6957C622.441 28.6957 619.095 256.689 431.446 219.646C243.798 182.604 215.556 351.046 119.33 326.691C23.1034 302.336 -56.9638 291.69 -142.417 418.569Z" fill="#A1DDFF"/>
</svg>
