<svg width="768" height="686" viewBox="0 0 768 686" fill="none" xmlns="http://www.w3.org/2000/svg">
<path d="M-173.72 548.931C-327.779 777.121 -330.141 574.897 -173.72 265.661C-17.2988 -43.5756 97.3917 336.478 298.167 108.551C498.942 -119.376 1309.61 52.3148 1410.01 259.541C1454.22 350.812 1199.16 257.792 860.861 191.171C522.562 124.55 471.647 427.492 298.167 383.69C124.687 339.888 -19.661 320.741 -173.72 548.931Z" fill="#0096EA"/>
<path d="M-174.33 665.287C-328.4 893.62 -330.762 691.269 -174.33 381.838C-17.8985 72.4067 96.7998 452.7 297.589 224.629C498.378 -3.44204 636.216 -5.9843 860.322 47.4737C969.247 73.4565 1198.64 373.965 860.322 307.302C522 240.639 471.081 543.771 297.589 499.942C124.097 456.112 -20.261 436.953 -174.33 665.287Z" fill="#38AFF1"/>
<path d="M-236.872 753.842C-390.932 982.167 -393.294 779.825 -236.872 470.406C-80.4497 160.987 277.107 457.458 477.884 229.396C678.661 1.33428 840.857 52.2481 1040.58 52.2481C1142.05 52.2481 1136.02 462.533 797.718 395.872C459.416 329.212 408.5 632.332 235.019 588.504C61.5372 544.676 -82.812 525.518 -236.872 753.842Z" fill="#A1DDFF"/>
<path d="M587.542 648.202C587.25 647.427 586.386 647.034 585.61 647.325C584.835 647.617 584.442 648.482 584.733 649.257L587.542 648.202ZM599.446 666.152L598.455 667.278L598.504 667.321L598.556 667.359L599.446 666.152ZM614.52 668.795L614.053 667.369L614.52 668.795ZM624.777 660.475L623.52 659.656L624.777 660.475ZM627.661 638.348L629.155 638.212L627.661 638.348ZM625.69 626.598L624.226 626.924L625.69 626.598ZM619.326 609.649L620.428 608.631L619.326 609.649ZM607.28 615.969L608.779 615.985L607.28 615.969ZM616.531 631.429L615.633 632.63L616.531 631.429ZM625.844 635.552L626.021 634.063L625.844 635.552ZM637.709 625.187L636.232 624.928L637.709 625.187ZM636.915 608.275L638.383 607.962L636.915 608.275ZM627.481 580.978L626.129 581.628L627.481 580.978ZM610.239 553.237C609.415 553.156 608.68 553.758 608.599 554.582L607.269 568.017C607.188 568.841 607.79 569.576 608.614 569.657C609.439 569.739 610.173 569.137 610.255 568.312L611.436 556.37L623.378 557.552C624.202 557.633 624.937 557.031 625.018 556.207C625.1 555.382 624.498 554.648 623.673 554.566L610.239 553.237ZM584.733 649.257C587.473 656.55 592.919 662.407 598.455 667.278L600.437 665.025C595.015 660.255 590.018 654.796 587.542 648.202L584.733 649.257ZM598.556 667.359C601.55 669.566 604.298 670.763 607.036 671.147C609.77 671.531 612.357 671.082 614.988 670.22L614.053 667.369C611.684 668.146 609.581 668.475 607.452 668.176C605.326 667.878 603.037 666.934 600.336 664.944L598.556 667.359ZM614.988 670.22C621.525 668.076 624.717 663.315 626.034 661.294L623.52 659.656C622.28 661.559 619.566 665.561 614.053 667.369L614.988 670.22ZM626.034 661.294C630.51 654.425 629.813 645.451 629.155 638.212L626.167 638.483C626.844 645.931 627.335 653.802 623.52 659.656L626.034 661.294ZM629.155 638.212C628.787 634.162 628.022 630.173 627.154 626.272L624.226 626.924C625.083 630.775 625.816 634.621 626.167 638.483L629.155 638.212ZM627.154 626.272C626.751 624.459 625.967 621.053 624.864 617.64C623.787 614.309 622.316 610.675 620.428 608.631L618.225 610.667C619.614 612.171 620.925 615.208 622.009 618.563C623.068 621.836 623.827 625.13 624.226 626.924L627.154 626.272ZM620.428 608.631C618.088 606.098 614.566 604.214 611.323 605.103C607.853 606.054 605.847 609.782 605.78 615.953L608.779 615.985C608.843 610.177 610.683 608.389 612.116 607.996C613.775 607.541 616.211 608.487 618.225 610.667L620.428 608.631ZM605.78 615.953C605.744 619.215 607.082 622.525 608.924 625.389C610.777 628.268 613.229 630.834 615.633 632.63L617.428 630.227C615.309 628.644 613.104 626.341 611.447 623.765C609.779 621.174 608.753 618.444 608.779 615.985L605.78 615.953ZM615.633 632.63C618.37 634.676 621.995 636.607 625.668 637.042L626.021 634.063C623.074 633.714 619.944 632.107 617.428 630.227L615.633 632.63ZM625.668 637.042C629.09 637.447 632.253 635.855 634.599 633.629C636.946 631.402 638.675 628.362 639.187 625.447L636.232 624.928C635.846 627.13 634.477 629.609 632.534 631.453C630.589 633.298 628.269 634.329 626.021 634.063L625.668 637.042ZM639.187 625.447C640.212 619.606 639.57 613.537 638.383 607.962L635.448 608.587C636.596 613.978 637.164 619.621 636.232 624.928L639.187 625.447ZM638.383 607.962C636.336 598.353 633.067 589.144 628.834 580.329L626.129 581.628C630.27 590.251 633.457 599.234 635.448 608.587L638.383 607.962ZM628.834 580.329C624.182 570.642 617.971 561.974 611.251 553.779L608.931 555.681C615.576 563.785 621.623 572.243 626.129 581.628L628.834 580.329Z" fill="#CAE4F7"/>
<path d="M594.807 586.486C600.832 595.446 600.525 607.518 595.015 619.865C589.508 632.203 578.83 644.739 564.27 654.519C549.709 664.299 534.062 669.445 520.551 669.88C507.032 670.316 495.732 666.04 489.707 657.08C483.682 648.12 483.989 636.048 489.499 623.702C495.006 611.363 505.684 598.828 520.244 589.048C534.804 579.268 550.451 574.121 563.962 573.686C577.482 573.25 588.782 577.526 594.807 586.486Z" stroke="#D1E8FC"/>
<ellipse cx="63.8" cy="39.9508" rx="63.8" ry="39.9508" transform="matrix(0.624016 -0.781412 0.781532 0.623865 471.21 646.708)" fill="#BEE8FF"/>
<path d="M535.336 605.67C531.352 607.1 529.361 607.816 529.118 609.298C528.879 610.78 530.549 612.05 533.891 614.587L534.755 615.243C535.704 615.965 536.177 616.327 536.449 616.817C536.723 617.308 536.761 617.875 536.84 619.008L536.91 620.039C537.181 624.027 537.319 626.021 538.761 626.708C540.203 627.395 541.995 626.322 545.58 624.174L546.509 623.617C547.528 623.006 548.036 622.699 548.619 622.618C549.203 622.534 549.793 622.681 550.972 622.975L552.047 623.242C556.198 624.276 558.274 624.793 559.403 623.736C560.536 622.678 559.973 620.745 558.849 616.88M559.83 610.851C562.124 607.504 563.269 605.83 562.527 604.486C561.786 603.148 559.643 603.025 555.363 602.786L554.254 602.723C553.039 602.655 552.432 602.621 551.904 602.369C551.375 602.117 550.987 601.677 550.21 600.795L549.501 599.992C546.769 596.889 545.399 595.335 543.808 595.564C542.22 595.795 541.458 597.652 539.937 601.37" stroke="#0096EA" stroke-width="2" stroke-linecap="round"/>
<path d="M529.019 609.293C522.202 613.774 516.985 622.345 519.683 637.523C522.073 631.195 529.275 626.128 537.324 623.689" stroke="#0096EA" stroke-width="2" stroke-linecap="round" stroke-linejoin="round"/>
<path d="M537.291 632.273C537.291 632.273 539.142 635.92 541.419 637.179C543.696 638.43 548.151 638.255 548.151 638.255C548.151 638.255 544.093 639.915 542.692 641.962C541.297 644.008 541.495 648.014 541.495 648.014C541.495 648.014 539.644 644.368 537.367 643.108C535.093 641.859 530.635 642.033 530.635 642.033C530.635 642.033 534.693 640.372 536.094 638.325C537.49 636.279 537.291 632.273 537.291 632.273ZM561.23 629.649C561.23 629.649 559.998 632.081 558.48 632.918C556.962 633.755 553.99 633.637 553.99 633.637C553.99 633.637 556.696 634.744 557.627 636.109C558.559 637.473 558.427 640.144 558.427 640.144C558.427 640.144 559.659 637.712 561.177 636.875C562.695 636.038 565.667 636.156 565.667 636.156C565.667 636.156 562.961 635.049 562.03 633.684C561.098 632.32 561.23 629.649 561.23 629.649Z" stroke="#0096EA" stroke-width="2" stroke-linejoin="round"/>
</svg>
