<svg width="1344" height="1450" viewBox="0 0 1344 1450" fill="none" xmlns="http://www.w3.org/2000/svg">
<mask id="mask0_66_1118" style="mask-type:alpha" maskUnits="userSpaceOnUse" x="0" y="0" width="1344" height="1450">
<rect x="1344" y="1450" width="1344" height="1450" transform="rotate(-180 1344 1450)" fill="#D9D9D9"/>
</mask>
<g mask="url(#mask0_66_1118)">
<path d="M-65.7511 1446.78C360.5 1349.51 825.035 1368.82 1212.96 1228.22C1600.88 1087.62 2040.93 -89.8085 1388.54 184.192C736.145 458.192 1113.67 81.6223 657.227 253.053C200.785 424.484 -131.015 231.445 -383.449 350.871C-635.883 470.297 -492.003 1544.04 -65.7511 1446.78Z" fill="#0096EA"/>
<path d="M-169.967 1486.42C256.336 1389.14 720.927 1323.99 1108.89 1183.37C1496.86 1042.75 1936.96 50.5734 1284.5 324.614C632.026 598.655 1119.21 182.5 662.716 353.956C206.219 525.412 -301.716 164.331 -599.3 521.376C-1084.17 1103.13 -596.27 1583.7 -169.967 1486.42Z" fill="#38AFF1"/>
<path d="M-173.329 1389.65C252.944 1292.36 717.502 1311.67 1105.44 1171.02C1493.38 1030.38 2069.93 -75.1108 1356.51 405.102C1080.95 590.589 1326.52 260.773 771.639 445.714C216.756 630.654 -280.883 133.777 -572.077 604.163C-863.271 1074.55 -599.602 1486.95 -173.329 1389.65Z" fill="#A1DDFF"/>
</g>
</svg>
