<svg width="400" height="407" viewBox="0 0 400 407" fill="none" xmlns="http://www.w3.org/2000/svg">
<path d="M-366.826 232.164C-365.913 233.2 -364.333 233.298 -363.298 232.385C-362.262 231.471 -362.164 229.891 -363.077 228.856L-366.826 232.164ZM-368.726 146.435L-366.888 148.13L-368.726 146.435ZM-203.909 326.35L-206.392 326.638L-203.909 326.35ZM-226.755 402.957L-227.344 400.527L-226.755 402.957ZM-262.89 320.729L-265.377 320.476L-262.89 320.729ZM-174.357 152.78L-173.073 154.925L-174.357 152.78ZM-34.4132 178.617L-36.1298 180.435L-34.4132 178.617ZM-4.60194 263.997L-7.03123 263.407L-4.60194 263.997ZM-36.9633 286.481L-37.6457 288.886L-36.9633 286.481ZM-73.0379 167.174L-75.4957 166.717L-73.0379 167.174ZM112.418 27.2108L111.368 29.48L112.418 27.2108ZM188.462 120.962L190.895 120.387L188.462 120.962ZM171.418 202.769L170.957 200.312L171.418 202.769ZM110.369 142.523L107.973 143.236L110.369 142.523ZM137.491 33.6149L139.308 35.332L137.491 33.6149ZM263.664 11.5126L262.919 13.8988L263.664 11.5126ZM376.667 100.575C381.539 106.097 389.965 106.624 395.486 101.752C401.008 96.8797 401.535 88.454 396.663 82.9323C391.791 77.4106 383.365 76.8839 377.843 81.756C372.322 86.628 371.795 95.0537 376.667 100.575ZM-363.077 228.856C-383.301 205.936 -388.854 171.947 -366.888 148.13L-370.563 144.74C-394.806 171.024 -388.163 207.983 -366.826 232.164L-363.077 228.856ZM-366.888 148.13C-357.374 137.815 -347.993 132.331 -338.918 130.455C-329.861 128.582 -320.823 130.243 -311.864 134.742C-293.804 143.811 -276.434 164.237 -261.093 189.132C-245.808 213.939 -232.759 242.813 -223.205 268.297C-213.631 293.838 -207.654 315.747 -206.392 326.638L-201.426 326.062C-202.76 314.546 -208.916 292.173 -218.524 266.542C-228.152 240.856 -241.333 211.669 -256.837 186.509C-272.285 161.439 -290.263 139.995 -309.62 130.274C-319.369 125.377 -329.556 123.413 -339.931 125.558C-350.288 127.7 -360.544 133.877 -370.563 144.74L-366.888 148.13ZM-206.392 326.638C-205.757 332.119 -204.776 349.416 -207.257 366.073C-208.498 374.406 -210.582 382.407 -213.895 388.658C-217.199 394.893 -221.576 399.129 -227.344 400.527L-226.166 405.387C-218.522 403.534 -213.175 397.977 -209.477 390.999C-205.788 384.038 -203.592 375.407 -202.311 366.809C-199.749 349.605 -200.755 331.85 -201.426 326.062L-206.392 326.638ZM-227.344 400.527C-233.613 402.047 -238.833 400.063 -243.323 395.516C-247.918 390.863 -251.657 383.578 -254.491 374.883C-260.151 357.519 -261.882 335.55 -260.403 320.981L-265.377 320.476C-266.922 335.693 -265.134 358.365 -259.245 376.432C-256.304 385.453 -252.261 393.581 -246.88 399.03C-241.394 404.585 -234.445 407.393 -226.166 405.387L-227.344 400.527ZM-260.403 320.981C-257.463 292.032 -249.084 258.524 -234.671 228.221C-220.25 197.9 -199.881 170.98 -173.073 154.925L-175.642 150.635C-203.58 167.367 -224.511 195.217 -239.187 226.073C-253.87 256.946 -262.385 291.018 -265.377 320.476L-260.403 320.981ZM-173.073 154.925C-124.901 126.074 -72.8002 145.802 -36.1298 180.435L-32.6967 176.8C-70.1626 141.415 -124.717 120.136 -175.642 150.635L-173.073 154.925ZM-36.1298 180.435C-26.4259 189.6 -17.3973 203.323 -11.6783 218.352C-5.95391 233.395 -3.64523 249.476 -7.03123 263.407L-2.17266 264.588C1.52889 249.358 -1.05739 232.204 -7.00519 216.574C-12.9583 200.93 -22.3792 186.544 -32.6967 176.8L-36.1298 180.435ZM-7.03123 263.407C-8.22501 268.319 -12.5202 274.45 -18.2783 278.91C-24.0523 283.382 -30.635 285.678 -36.2809 284.076L-37.6457 288.886C-29.8017 291.112 -21.5686 287.782 -15.2167 282.863C-8.84905 277.931 -3.70858 270.907 -2.17266 264.588L-7.03123 263.407ZM-36.2809 284.076C-56.8676 278.235 -67.1223 257.885 -71.3479 233.927C-75.5484 210.111 -73.5763 183.725 -70.5801 167.632L-75.4957 166.717C-78.5686 183.223 -80.6037 210.235 -76.2719 234.795C-71.9653 259.213 -61.1481 282.218 -37.6457 288.886L-36.2809 284.076ZM-70.5801 167.632C-63.0914 127.407 -40.2973 82.1341 -7.93205 52.3282C24.3479 22.6008 65.8652 8.44364 111.368 29.48L113.467 24.9415C65.6417 2.83185 22.0081 17.9583 -11.3192 48.6502C-44.5612 79.2635 -67.8307 125.545 -75.4957 166.717L-70.5801 167.632ZM111.368 29.48C147.942 46.3879 176.784 82.4689 186.029 121.538L190.895 120.387C181.306 79.8643 151.471 42.5111 113.467 24.9415L111.368 29.48ZM186.029 121.538C187.95 129.654 190.715 148.523 189.516 165.932C188.915 174.646 187.334 182.783 184.307 188.988C181.31 195.134 177.018 199.174 170.957 200.312L171.879 205.226C179.946 203.712 185.34 198.276 188.801 191.18C192.233 184.144 193.884 175.275 194.504 166.276C195.745 148.259 192.904 128.876 190.895 120.387L186.029 121.538ZM170.957 200.312C158.178 202.71 145.302 193.858 134.452 180.816C123.731 167.929 115.75 151.831 112.765 141.809L107.973 143.236C111.156 153.921 119.464 170.618 130.608 184.013C141.623 197.253 156.187 208.171 171.879 205.226L170.957 200.312ZM112.765 141.809C101.891 105.298 113.208 62.9494 139.308 35.332L135.675 31.8977C108.43 60.726 96.5566 104.903 107.973 143.236L112.765 141.809ZM139.308 35.332C171.68 1.07859 219.706 0.394674 262.919 13.8988L264.41 9.12646C220.425 -4.61908 169.975 -4.39651 135.675 31.8977L139.308 35.332ZM262.919 13.8988C313.505 29.7073 345.175 61.0212 385.081 93.6884L388.248 89.8194C348.764 57.4975 316.168 25.301 264.41 9.12646L262.919 13.8988Z" fill="#AAE0FF"/>
</svg>
