<svg width="543" height="408" viewBox="0 0 543 408" fill="none" xmlns="http://www.w3.org/2000/svg">
<path d="M6.11379 221.153C-4.05088 214.8 13.866 156.582 14.5465 154.009C25.6622 111.978 40.9452 69.9004 67.2114 34.6775C73.8703 25.748 100.809 -8.80358 117.49 7.15177C129.481 18.6216 131.157 47.6611 132.446 59.6576C138.676 117.663 137.895 176.933 136.583 235.154C136.483 239.587 126.513 410.235 114.308 405.082C108.003 402.42 108.219 392.488 107.625 385.671C104.483 349.618 113.636 313.535 127.832 280.659C151.928 224.857 191.441 164.277 243.504 130.461C258.627 120.638 275.965 112.333 293.941 110.891C338.509 107.313 343.285 134.676 378.269 152.1C419.757 172.763 431.155 164.997 469.12 136.984C510.686 106.314 539.323 58.97 588.769 39.1326C629.04 22.9758 679.471 20.4024 722.102 12.0841" stroke="#AAE0FF" stroke-width="5"/>
</svg>
