<svg width="279" height="448" viewBox="0 0 279 448" fill="none" xmlns="http://www.w3.org/2000/svg">
<path d="M-111.02 72.3825C-110.706 71.9278 -110.821 71.3053 -111.275 70.992C-111.73 70.6787 -112.353 70.7933 -112.667 71.248L-111.02 72.3825ZM-50.6311 4.54492L-50.9662 3.603L-50.6311 4.54492ZM30.0458 45.0973L30.9506 44.6709L30.0458 45.0973ZM-15.4714 163.347L-15.126 164.285L-15.4714 163.347ZM-110.138 121.042L-111.139 121.055L-110.138 121.042ZM-12.9356 22.5315L-12.7856 23.5199L-12.9356 22.5315ZM125.309 93.0684L126.242 92.7089L125.309 93.0684ZM84.7515 190.52L84.8804 191.512L84.7515 190.52ZM58.0333 146.683L58.8931 147.194L58.0333 146.683ZM171.12 110.169L171.359 109.199L171.12 110.169ZM249.068 190.325L250.038 190.082L249.068 190.325ZM244.83 257.42L245.751 257.81L244.83 257.42ZM204.677 298.369L204.492 297.387L204.677 298.369ZM181.184 248.495L180.35 247.944L181.184 248.495ZM252.732 239.024L252.023 239.73L252.732 239.024ZM273.119 322.517L274.052 322.876L273.119 322.517ZM203.97 447.707C204.361 448.097 204.994 448.097 205.385 447.707L211.75 441.343C212.141 440.953 212.141 440.32 211.75 439.929C211.36 439.539 210.726 439.539 210.336 439.93L204.677 445.586L199.019 439.932C198.628 439.541 197.995 439.542 197.604 439.932C197.214 440.323 197.214 440.956 197.604 441.346L203.97 447.707ZM-112.667 71.248C-113.739 72.8034 -114.545 73.9334 -115.107 74.6861C-115.389 75.0637 -115.603 75.3369 -115.755 75.5182C-115.831 75.6097 -115.884 75.6672 -115.915 75.6993C-115.972 75.7583 -115.922 75.6934 -115.805 75.6293C-115.767 75.6083 -115.689 75.5693 -115.581 75.543C-115.476 75.5175 -115.277 75.4882 -115.043 75.5656C-114.449 75.7624 -114.379 76.3194 -114.372 76.4331C-114.363 76.5802 -114.393 76.685 -114.395 76.6928C-114.402 76.7194 -114.407 76.7298 -114.402 76.7173C-114.378 76.6543 -114.304 76.4978 -114.154 76.2223C-113.866 75.6926 -113.379 74.8696 -112.706 73.7887C-110.023 69.4722 -104.527 61.2586 -97.5996 51.9437C-90.671 42.6278 -82.3271 32.2338 -73.9459 23.5438C-65.5299 14.8177 -57.1977 7.94075 -50.2961 5.48683L-50.9662 3.603C-58.3465 6.2271 -66.9579 13.4176 -75.3861 22.1563C-83.8491 30.9311 -92.2498 41.3993 -99.205 50.7511C-106.161 60.1039 -111.689 68.3634 -114.406 72.7336C-115.084 73.8243 -115.595 74.6863 -115.911 75.2676C-116.064 75.5476 -116.193 75.803 -116.268 75.9975C-116.288 76.0494 -116.311 76.1146 -116.33 76.1861C-116.344 76.2388 -116.379 76.3787 -116.369 76.5508C-116.361 76.6896 -116.282 77.2618 -115.673 77.4635C-115.432 77.5434 -115.224 77.514 -115.108 77.4859C-114.989 77.457 -114.899 77.4127 -114.846 77.3839C-114.672 77.2888 -114.538 77.1513 -114.483 77.0952C-114.402 77.0121 -114.313 76.9118 -114.221 76.8014C-114.035 76.5788 -113.795 76.2719 -113.504 75.8821C-112.92 75.1001 -112.098 73.9467 -111.02 72.3825L-112.667 71.248ZM-50.2961 5.48683C-34.4096 -0.161692 -17.9263 2.71818 -3.6955 10.6011C10.5434 18.4885 22.4586 31.3523 29.141 45.5237L30.9506 44.6709C24.0896 30.1207 11.8809 16.9432 -2.7255 8.85217C-17.3401 0.756672 -34.4235 -2.27887 -50.9662 3.603L-50.2961 5.48683ZM29.141 45.5237C38.8419 66.0964 38.6584 91.2634 30.4849 113.347C22.3125 135.428 6.19921 154.306 -15.8169 162.409L-15.126 164.285C7.55324 155.938 24.032 136.545 32.3612 114.041C40.6892 91.5393 40.9167 65.8062 30.9506 44.6709L29.141 45.5237ZM-15.8169 162.409C-31.7013 168.255 -54.9895 168.8 -74.3544 162.366C-93.6996 155.939 -108.856 142.67 -109.138 121.029L-111.139 121.055C-110.841 143.878 -94.7741 157.69 -74.9858 164.264C-55.2172 170.831 -31.4617 170.297 -15.126 164.285L-15.8169 162.409ZM-109.138 121.029C-109.455 96.7045 -96.4823 74.0179 -77.7963 56.5291C-59.1121 39.0419 -34.8314 26.8658 -12.7856 23.5199L-13.0856 21.543C-35.577 24.9566 -60.2197 37.3396 -79.1636 55.0698C-98.1057 72.7983 -111.465 95.9873 -111.139 121.055L-109.138 121.029ZM-12.7856 23.5199C13.0579 19.5976 42.4257 24.2385 67.8101 36.3046C93.1935 48.3703 114.505 67.8155 124.375 93.4279L126.242 92.7089C116.143 66.5017 94.3884 46.7241 68.6696 34.4989C42.9517 22.2743 13.1818 17.5565 -13.0856 21.543L-12.7856 23.5199ZM124.375 93.4279C130.988 110.588 131.954 133.269 125.77 152.346C119.594 171.394 106.357 186.701 84.6225 189.529L84.8804 191.512C107.601 188.555 121.336 172.508 127.673 152.962C134 133.444 133.018 110.292 126.242 92.7089L124.375 93.4279ZM84.6225 189.529C71.4053 191.249 61.9235 185.861 57.249 177.554C52.5525 169.209 52.6152 157.749 58.8931 147.194L57.1736 146.173C50.5764 157.264 50.4155 169.49 55.5054 178.535C60.6173 187.619 70.9322 193.327 84.8804 191.512L84.6225 189.529ZM58.8931 147.194C69.9024 128.685 88.0558 117.258 108.415 111.663C128.78 106.066 151.291 106.325 170.881 111.14L171.359 109.199C151.466 104.308 128.606 104.04 107.885 109.735C87.1574 115.432 68.5091 127.115 57.1736 146.173L58.8931 147.194ZM170.881 111.14C209.78 120.702 238.5 152.274 248.098 190.568L250.038 190.082C240.28 151.149 211.054 118.956 171.359 109.199L170.881 111.14ZM248.098 190.568C253.624 212.616 252.869 235.927 243.91 257.029L245.751 257.81C254.905 236.25 255.654 212.486 250.038 190.082L248.098 190.568ZM243.91 257.029C240.431 265.223 235.261 274.454 228.595 282.072C221.925 289.695 213.825 295.628 204.492 297.387L204.863 299.352C214.797 297.479 223.266 291.2 230.101 283.388C236.941 275.57 242.214 266.142 245.751 257.81L243.91 257.029ZM204.492 297.387C197.47 298.71 191.879 297.47 187.599 294.666C183.303 291.85 180.233 287.396 178.392 282.139C174.696 271.588 176.049 258.084 182.019 249.046L180.35 247.944C174.008 257.545 172.619 271.709 176.504 282.8C178.453 288.365 181.754 293.226 186.502 296.338C191.268 299.46 197.397 300.759 204.863 299.352L204.492 297.387ZM182.019 249.046C190.693 235.914 202.672 228.052 215.194 226.221C227.701 224.393 240.877 228.56 252.023 239.73L253.44 238.317C241.888 226.742 228.094 222.315 214.905 224.243C201.732 226.169 189.286 234.415 180.35 247.944L182.019 249.046ZM252.023 239.73C272.955 260.704 283.061 293.92 272.185 322.158L274.052 322.876C285.264 293.765 274.819 259.74 253.44 238.317L252.023 239.73ZM272.185 322.158C268.706 331.191 262.824 336.513 255.825 341.162C252.302 343.502 248.55 345.638 244.645 348.02C240.76 350.389 236.773 352.972 232.89 356.15C217.255 368.949 203.677 391.112 203.677 447L205.678 447C205.678 391.453 219.155 369.979 234.158 357.697C237.935 354.605 241.831 352.078 245.687 349.727C249.522 347.388 253.368 345.195 256.933 342.827C264.11 338.058 270.366 332.447 274.052 322.876L272.185 322.158Z" fill="url(#paint0_linear_95_23359)"/>
<defs>
<linearGradient id="paint0_linear_95_23359" x1="-142.409" y1="114.696" x2="187.161" y2="424.404" gradientUnits="userSpaceOnUse">
<stop offset="0.975" stop-color="white"/>
<stop offset="1" stop-color="#0086D1"/>
</linearGradient>
</defs>
</svg>
